<svg xmlns="http://www.w3.org/2000/svg" width="16" height="16" fill="none" viewBox="0 0 8 14" class="p0 rot270">
    <path
        d="M1.64558 0.700159C1.3527 0.407255 0.877829 0.407236 0.584925 0.700118C0.29202 0.993 0.292002 1.46787 0.584884 1.76078L1.64558 0.700159ZM6.35399 7.53033L6.8843 8.06068L7.945 7.00006L7.41469 6.46971L6.35399 7.53033ZM0.584884 1.76078L6.35399 7.53033L7.41469 6.46971L1.64558 0.700159L0.584884 1.76078Z"
        fill="currentColor" class="r1rpzmwd tpt td100 ttfl"></path>
    <path
        d="M1.64558 13.2998C1.3527 13.5927 0.877829 13.5928 0.584925 13.2999C0.29202 13.007 0.292002 12.5321 0.584884 12.2392L1.64558 13.2998ZM6.35399 6.46967L6.8843 5.93932L7.945 6.99994L7.41469 7.53029L6.35399 6.46967ZM0.584884 12.2392L6.35399 6.46967L7.41469 7.53029L1.64558 13.2998L0.584884 12.2392Z"
        fill="currentColor" class="l1aso11h tpt td100 ttfl"></path>
</svg>