<svg xmlns="http://www.w3.org/2000/svg" width="32" height="32" fill="none" viewBox="0 0 33 33" class="p0">
    <rect x="0.625" y="0.625" width="30.75" height="30.75" rx="15.375" stroke="currentColor" stroke-width="1.25"></rect>
    <path
        d="M10.853 9.07706C12.9364 10.6412 15.1772 13.8126 16 15.5143C16.8229 13.8126 19.0637 10.6412 21.147 9.07706C22.6504 7.94835 25.086 7.07527 25.086 9.85385C25.086 10.4089 24.7677 14.5155 24.5811 15.1823C23.9326 17.5001 21.569 18.0914 19.4661 17.7337C23.1415 18.3591 24.0763 20.431 22.0572 22.5029C18.2226 26.4377 16.5458 21.5156 16.1162 20.2544C16.0375 20.0231 16.0007 19.915 16 20.0071C15.9994 19.915 15.9626 20.0234 15.8839 20.2544C15.4542 21.5156 13.7775 26.4377 9.94282 22.5029C7.92376 20.431 8.85859 18.3591 12.5339 17.7337C10.4314 18.0914 8.06772 17.5005 7.41891 15.1823C7.23239 14.5158 6.91406 10.4089 6.91406 9.85417C6.91406 7.07527 9.34968 7.94867 10.853 9.07706Z"
        fill="currentColor"></path>
</svg>