<svg xmlns="http://www.w3.org/2000/svg" width="32" height="32" fill="none" viewBox="0 0 33 33" class="p0">
    <circle cx="16.0518" cy="16.75" r="15.375" stroke="currentColor" stroke-width="1.25"></circle>
    <path
        d="M16.0521 14.3668C14.7398 14.3668 13.6688 15.4377 13.6688 16.75C13.6688 18.0623 14.7398 19.1332 16.0521 19.1332C17.3643 19.1332 18.4353 18.0623 18.4353 16.75C18.4353 15.4377 17.3643 14.3668 16.0521 14.3668ZM23.1999 16.75C23.1999 15.7631 23.2089 14.7851 23.1534 13.8C23.098 12.6558 22.837 11.6403 22.0003 10.8036C21.1618 9.96507 20.148 9.70583 19.0038 9.65041C18.0169 9.59499 17.039 9.60393 16.0538 9.60393C15.0669 9.60393 14.089 9.59499 13.1039 9.65041C11.9596 9.70583 10.9441 9.96686 10.1074 10.8036C9.26891 11.6421 9.00967 12.6558 8.95424 13.8C8.89882 14.7869 8.90776 15.7649 8.90776 16.75C8.90776 17.7351 8.89882 18.7149 8.95424 19.7C9.00967 20.8442 9.27069 21.8597 10.1074 22.6964C10.9459 23.5349 11.9596 23.7942 13.1039 23.8496C14.0908 23.905 15.0687 23.8961 16.0538 23.8961C17.0407 23.8961 18.0187 23.905 19.0038 23.8496C20.148 23.7942 21.1636 23.5331 22.0003 22.6964C22.8388 21.8579 23.098 20.8442 23.1534 19.7C23.2107 18.7149 23.1999 17.7369 23.1999 16.75ZM16.0521 20.4169C14.0228 20.4169 12.3851 18.7792 12.3851 16.75C12.3851 14.7208 14.0228 13.0831 16.0521 13.0831C18.0813 13.0831 19.719 14.7208 19.719 16.75C19.719 18.7792 18.0813 20.4169 16.0521 20.4169ZM19.8691 13.7893C19.3954 13.7893 19.0128 13.4067 19.0128 12.9329C19.0128 12.4591 19.3954 12.0765 19.8691 12.0765C20.3429 12.0765 20.7255 12.4591 20.7255 12.9329C20.7257 13.0454 20.7036 13.1568 20.6606 13.2608C20.6176 13.3648 20.5546 13.4592 20.475 13.5388C20.3955 13.6183 20.301 13.6814 20.197 13.7244C20.0931 13.7674 19.9816 13.7894 19.8691 13.7893Z"
        fill="currentColor"></path>
</svg>