<svg id="Layer_1" data-name="Layer 1" xmlns="http://www.w3.org/2000/svg" viewBox="0 0 130 53.5"><defs><style>.cls-1{fill:#ff1d46;}</style></defs><title>SFG_logos</title><g id="Page-1"><g id="Artboard-Copy-31"><g id="Group-41"><path id="Combined-Shape" class="cls-1" d="M13.5,0C19,0,21.9,2.7,22,8.2V20.1H13.1V9.4c0-1.1-.5-1.6-1.4-1.6h-1c-1.1,0-1.5.5-1.6,1.5v7.5a3.81,3.81,0,0,0,1.5,3.4l.2.1,7.4,5.6c2.8,2.1,3.8,4,3.9,7.6V45c0,5.6-2.7,8.4-8.2,8.5H8.5C2.9,53.5.1,50.8,0,45.3V32H9V44c0,1.1.4,1.6,1.4,1.6h1c1.1,0,1.5-.5,1.6-1.5V35.5a3.81,3.81,0,0,0-1.5-3.4l-.2-.1L3.9,26.4C1,24.3.1,22.3,0,18.8V8.5C0,2.9,2.7.1,8.2,0h5.3ZM58,0c5.6,0,8.4,2.7,8.5,8.2V20.5h-9V9.5c0-1.1-.5-1.6-1.4-1.6H54.6A1.44,1.44,0,0,0,53,9.4V44.1c0,1.1.5,1.6,1.4,1.6h1.7c1.1,0,1.6-.5,1.6-1.5V31.6H54.9V23.9H66.7V44.8c0,5.6-2.7,8.4-8.2,8.5H52.4c-5.6,0-8.4-2.7-8.5-8.2V8.5c0-5.6,2.7-8.4,8.2-8.5H58ZM41.3.4,39,8.5H33.9V22.7h7.2v8.1H33.9V52.9H24.8V.4ZM86.6.4l6,52.5H83.5l-.8-7.7H77.1l-.7,7.7H68.1L74.1.4ZM111,.4V8.5h-5.5V52.9H96.3V8.5H90.8V.4Zm18.8,0-2.3,8.1h-5.1V22.2h7.5v8.1h-7.5V44.7H130l-1.9,8.2H113.3V.4ZM79.9,13.1,77.8,37.3h4.3Z"/></g></g></g></svg>