<svg xmlns="http://www.w3.org/2000/svg" width="32" height="32" fill="none" viewBox="0 0 33 33" class="p0">
    <path fill-rule="evenodd" clip-rule="evenodd"
        d="M21.9688 11.7875C21.494 11.4792 21.0868 11.0774 20.7724 10.6066C20.4579 10.1358 20.2427 9.60581 20.1399 9.04906C20.0984 8.81128 20.0747 8.57076 20.0689 8.32947H17.2235V19.6611C17.2211 20.299 16.9667 20.9101 16.5158 21.3613C16.0648 21.8124 15.4538 22.0671 14.8159 22.0697C14.4131 22.068 14.0164 21.9707 13.6585 21.7859C13.274 21.5788 12.9519 21.2725 12.7257 20.8988C12.4995 20.5252 12.3775 20.0978 12.3722 19.6611C12.3727 19.342 12.4366 19.0262 12.56 18.732C12.6834 18.4377 12.864 18.1709 13.0913 17.947C13.3186 17.723 13.588 17.5464 13.8841 17.4274C14.1801 17.3083 14.4968 17.2492 14.8159 17.2534C15.0595 17.2546 15.3018 17.2903 15.5355 17.3594V14.486C15.2975 14.4456 15.0571 14.4219 14.8159 14.415C14.1235 14.412 13.4374 14.5456 12.7967 14.8081C12.1561 15.0705 11.5735 15.4568 11.0823 15.9447C10.5911 16.4327 10.201 17.0127 9.93424 17.6516C9.66751 18.2905 9.5294 18.9757 9.52783 19.6681C9.52945 20.511 9.73668 21.3407 10.1315 22.0854C10.5263 22.8301 11.0968 23.4673 11.7936 23.9417C12.6847 24.55 13.7369 24.8789 14.8159 24.8861C15.5034 24.8885 16.1847 24.7554 16.8208 24.4944C17.457 24.2335 18.0354 23.8497 18.5232 23.3652C19.011 22.8806 19.3986 22.3047 19.6638 21.6704C19.929 21.036 20.0667 20.3556 20.0689 19.6681V13.7714C20.6044 14.2483 21.2307 14.6123 21.9103 14.8414C22.5899 15.0705 23.3087 15.16 24.0237 15.1046V12.2602C23.3031 12.4022 22.5835 12.1893 21.9688 11.7995V11.7875Z"
        fill="currentColor"></path>
    <rect x="1.40088" y="1.23279" width="30.75" height="30.75" rx="15.375" stroke="currentColor" stroke-width="1.25">
    </rect>
</svg>